<svg xmlns="http://www.w3.org/2000/svg" viewBox="0 0 64 64" role="img" aria-label="飞机起飞">
  <defs>
    <linearGradient id="bg" x1="12" y1="8" x2="54" y2="58" gradientUnits="userSpaceOnUse">
      <stop offset="0" stop-color="#0f7a5a"/>
      <stop offset="1" stop-color="#083b2c"/>
    </linearGradient>
    <filter id="softShadow" x="-20%" y="-20%" width="140%" height="140%">
      <feDropShadow dx="0" dy="2" stdDeviation="2" flood-color="#06291f" flood-opacity="0.35"/>
    </filter>
  </defs>
  <rect width="64" height="64" rx="16" fill="url(#bg)"/>
  <path d="M11 46c14.5-5.8 28.2-8.5 42-8.5" fill="none" stroke="#f6c76b" stroke-width="4" stroke-linecap="round"/>
  <path d="M13 51h23" fill="none" stroke="#dff2ea" stroke-width="3" stroke-linecap="round" opacity="0.72"/>
  <path d="M16.6 34.7 48.8 18.2c2.9-1.5 6.2.9 5.7 4.1-.2 1.2-1 2.3-2.1 2.9L39.2 32l-1.9 15.2c-.1 1-.9 1.9-1.9 2.1l-3 .8-4.5-13.5-9.2 4.7-1.6 6.7-2.8.8-2.4-8.2-7.4-4.3 2.4-2.1 6.9 1.7 8.9-4.5-10.2-8.9 3.1-1.8 14.7 5.8 11.1-5.7-25.5 8.7c-1.6.5-3.2-.5-3.5-2.1-.2-1.2.4-2.4 1.5-3Z" fill="#ffffff" filter="url(#softShadow)"/>
  <path d="M43.2 21.1 51 18.8c1.8-.5 3.4 1.2 2.7 3-.3.8-.9 1.4-1.7 1.8l-8.8 4.5v-7Z" fill="#eef9f5" opacity="0.9"/>
</svg>
